#!OML:ASF F:\VICON\USERDATA\INSTALL\rory3\rory3.ASF
:FULLY-SPECIFIED
:DEGREES
64
root 1.2600891352965862 17.90614966321502 46.55903773642901 -3.8020954200088086 0.8833165209937117 -2.0485474954645837
lfemur -11.141512398184279 -4.001308958416363 -21.936968009187495
ltibia 23.57051836066354
lfoot -6.819680714059483 -4.85962586818704
ltoes -6.771360732951377
rfemur -11.344063546476402 1.462412501562643 23.576759803107155
rtibia 55.7504461702608
rfoot -7.161123054407564 -8.118394169183967
rtoes 8.30194919322019
lowerback 1.0 0.1588054745454209 1.5368049447793646
upperback 0.1379535281969034 0.8165857826379561 1.4135806825655728
thorax -5.102812265665203 0.42785472676094444 0.13153138525049424
lowerneck -15.944513836964857 -3.2360566601497434 -1.400638878050305
upperneck 22.94464209524634 -4.314919411228802 0.43627313790847977
head 10.10982251111861 -2.047918001372835 -0.16594743503896864
lclavicle -1.822402846128004e-15 -1.3461825860501863e-16
lhumerus -30.144268633077015 1.5177219032970308 81.85852220838781
lradius 28.528513536188694
lwrist 4.952928795489788
lhand -27.216795425792935 24.05453134766063
lfingers nan
lthumb -0.6336729793071395 54.09494786611279
rclavicle -1.8600121655195154e-15 -1.764094185692716e-16
rhumerus -25.96344454664821 -18.359489981958877 -74.4929240475764
rradius 30.987656406816242
rwrist 2.1467922241787916
rhand -18.147696237553376 1.0
rfingers nan
rthumb 8.277253815357087 -8.138641930809651
65
root 1.2692167113824664 17.88936944138172 47.465768805222645 -3.808200024103418 1.1386387558588937 -1.1387881061708163
lfemur -8.73971117724447 -4.454211129475281 -23.245557497584564
ltibia 23.878860018063534
lfoot -8.878652046436125 -4.5690068322645345
ltoes -4.8717098019840845
rfemur -15.040162969458304 0.555980132347397 21.752500758128154
rtibia 59.13822235190362
rfoot -7.771747800285484 -6.738326328728647
rtoes 7.8410650342211525
lowerback 1.0 -0.10813153453083862 0.6797942079369025
upperback 0.18177577369961578 0.311219821707728 1.2426020432996432
thorax -5.166375256202606 0.16752204201636772 0.5529952852498635
lowerneck -16.044552888830417 -3.202766854593874 -1.394574734662167
upperneck 22.811053315832435 -4.261437191285224 0.5044142740700721
head 10.077140596566544 -2.0254278536773227 -0.12971614997770742
lclavicle -1.8268688232095704e-15 -1.3626616433476271e-16
lhumerus -28.7462440779647 0.7843967036476247 81.6767624758602
lradius 28.997566080936068
lwrist 3.9782889995300112
lhand -27.09118227119755 24.138648121001346
lfingers nan
lthumb -0.5241875011132169 54.200129807686565
rclavicle -1.866976033865233e-15 -1.7729963238777542e-16
rhumerus -26.44841289239335 -18.45635865584957 -75.56673787152685
rradius 30.501223943612253
rwrist 2.409203802862428
rhand -18.1375004412596 1.0
rfingers nan
rthumb 8.292862525023148 -8.071336197344397
66
root 1.2788715993019775 17.870697937741333 48.49994493371275 -3.872615700930318 1.113945666150695 0.19312340505589232
lfemur -5.8404882764256065 -4.761031366636647 -24.73742183200986
ltibia 24.006844888915303
lfoot -9.366205076506606 -2.916577419915689
ltoes -5.154483832261622
rfemur -18.211001656505765 0.09371308783001453 20.28577608509123
rtibia 61.06993008391061
rfoot -8.30823751922503 -5.480749388880589
rtoes 6.949609612510184
lowerback 1.0 -0.4521724783092764 -0.6606988788337114
upperback 0.24199835335004527 -0.4139237018947354 0.9690697973170243
thorax -5.203015292922658 -0.17414919159317777 1.2259895025914316
lowerneck -16.17942542308273 -3.1343604815525046 -1.3919635233456131
upperneck 22.75141612546102 -4.142826716876256 0.5345179934799675
head 10.081908169883542 -1.9829050960104329 -0.09862829302883586
lclavicle -1.833069486449672e-15 -1.3916560651308526e-16
lhumerus -27.384662022373888 0.08133091365706413 81.48767922696734
lradius 29.399208884537583
lwrist 3.2507260787305983
lhand -27.039541081235168 24.249860950899695
lfingers nan
lthumb -0.41710674316279345 54.41947463917575
rclavicle -1.873149047825368e-15 -1.7712562685021757e-16
rhumerus -27.050163838712386 -18.860999243092287 -76.58984507293724
rradius 29.91536037507818
rwrist 3.167837809088226
rhand -18.132874099151785 1.0
rfingers nan
rthumb 8.322244554481887 -7.942754287687279
67
root 1.2970734333682012 17.84492511082032 48.77691989263843 -4.053259376250019 0.730413792717483 1.818710692928255
lfemur -2.293860042138701 -4.877107220206046 -26.219779538440896
ltibia 23.421483254533808
lfoot -9.554468585861956 -2.602263823522918
ltoes -4.426030926735336
rfemur -20.47904741768484 -0.045971183040590446 19.002701198635968
rtibia 61.39304954021372
rfoot -8.683653155948408 -4.541916160887483
rtoes 5.903986041537991
lowerback 1.0 -0.6693346154436853 -2.1497797602335105
upperback 0.34957652744773227 -0.9464099341777894 0.6945942453131576
thorax -5.1384054289121766 -0.42454021738503267 1.9055597735288248
lowerneck -16.31115843444707 -3.04880601085229 -1.4293445839944854
upperneck 22.726697534355477 -3.985461641696272 0.543354768728402
head 10.097552084490859 -1.9274393789219113 -0.06670847207130048
lclavicle -1.8420665146512945e-15 -1.4334618441302127e-16
lhumerus -26.23920015694425 -0.5476016309231526 81.29702245299502
lradius 29.76532028948688
lwrist 3.114428518573196
lhand -27.050015046672847 24.403263579498336
lfingers nan
lthumb -0.38179013668149203 54.592599501755075
rclavicle -1.8831830310378445e-15 -1.7720428565548848e-16
rhumerus -27.726377980887595 -19.464811032964437 -77.44682689011321
rradius 29.322845746078738
rwrist 4.095789148022158
rhand -18.12491180315353 1.0
rfingers nan
rthumb 8.333736553125831 -7.8479601227994555
68
root 1.3319951315481529 17.82558269097778 48.734558021892965 -4.1803494922723505 0.28519244679266387 2.0829415274814873
lfemur 0.9956972361270857 -4.872287221834018 -26.417049462027567
ltibia 22.638051204147523
lfoot -7.997894032333854 -2.385306887337558
ltoes -5.997855513101596
rfemur -22.947446796996402 0.10226715159799493 18.920607971880813
rtibia 60.37862171610601
rfoot -8.981421689166076 -3.944336240015626
rtoes 4.874118027647154
lowerback 1.0 -0.7934772577226883 -2.5516752189217105
upperback 0.37575759468194475 -1.2169864575779599 0.7193828410493208
thorax -5.091425390372712 -0.5634375923776367 2.306676884318497
lowerneck -16.387037155257143 -2.972277184102579 -1.4959220421926338
upperneck 22.76000392610864 -3.8302863346814475 0.531174446436646
head 10.120543245707651 -1.8725399487903736 -0.04005607559235473
lclavicle -1.85009190002472e-15 -1.4678272631124343e-16
lhumerus -25.40125209153896 -1.064881824611943 81.12983082165213
lradius 30.099633423615494
lwrist 3.3191422920869478
lhand -27.069692230536045 24.482678067456174
lfingers nan
lthumb -0.35874619561233684 54.685391582821076
rclavicle -1.8938946404933588e-15 -1.7797639779070574e-16
rhumerus -28.448419067684267 -20.19306018286382 -78.08800354359343
rradius 28.807507986021818
rwrist 4.691823754250274
rhand -18.121339058404942 1.0
rfingers nan
rthumb 8.369062911642242 -7.757453378281037
69
root 1.323255493989878 17.815046585227513 48.45261479392258 -3.9857818150323374 -0.04558422762510039 0.2184601884693813
lfemur 3.140799086726746 -4.726238382432571 -24.692408374403705
ltibia 22.465672381456827
lfoot -6.951477061967174 -3.2964503915653554
ltoes -7.169574418341604
rfemur -25.117245597004782 0.8682810821061486 21.33187305326289
rtibia 58.18346425270012
rfoot -9.229260834198373 -3.640152152657275
rtoes 3.9485811389808148
lowerback 1.0 -0.9781036677351045 -1.3385882321141889
upperback 0.265185549901629 -1.267533389053396 1.177480812226318
thorax -5.208251313599986 -0.605545559756267 2.458183915097986
lowerneck -16.426625432490855 -2.904122116997146 -1.5506708361171244
upperneck 22.858426896647 -3.686037251392901 0.4809778968593775
head 10.149466496662516 -1.8222545299112434 -0.027272831324543806
lclavicle -1.8522260456709298e-15 -1.4654062810167984e-16
lhumerus -24.87412635286008 -1.440758903181294 81.00841353340607
lradius 30.329747382303236
lwrist 3.4907929635218538
lhand -27.028756669489773 24.52472202441644
lfingers nan
lthumb -0.33397665782611907 54.64668670814364
rclavicle -1.9023147118010344e-15 -1.8014756253211973e-16
rhumerus -29.211946914675355 -21.022063489562623 -78.5454247199671
rradius 28.43294091675326
rwrist 4.631264313017681
rhand -18.11803358994738 1.0
rfingers nan
rthumb 8.383838268522261 -7.77420654573636
